<svg width="201" height="34" viewBox="0 0 201 34" fill="none" xmlns="http://www.w3.org/2000/svg">
<path d="M9.20742 26.2344C7.66039 26.2344 6.27546 25.8825 5.05265 25.1789C3.82983 24.4752 2.86545 23.4556 2.15951 22.1199C1.45357 20.7843 1.1006 19.1714 1.1006 17.2812C1.1006 15.3791 1.45674 13.7591 2.169 12.4214C2.88127 11.0836 3.84987 10.0631 5.0748 9.35972C6.29972 8.65637 7.67727 8.30469 9.20742 8.30469C10.1999 8.30469 11.1246 8.44309 11.9815 8.71988C12.8384 8.99668 13.5983 9.40106 14.2613 9.93302C14.9243 10.465 15.4679 11.1151 15.8922 11.8833C16.3165 12.6515 16.5941 13.527 16.725 14.5098H13.1062C13.0234 14.0306 12.8717 13.6045 12.651 13.2315C12.4304 12.8586 12.1529 12.5412 11.8184 12.2793C11.484 12.0174 11.1025 11.8189 10.674 11.6838C10.2455 11.5486 9.78196 11.481 9.28337 11.481C8.37572 11.481 7.57913 11.7076 6.89359 12.1608C6.20806 12.614 5.67616 13.272 5.29788 14.1348C4.91961 14.9976 4.73047 16.0464 4.73047 17.2812C4.73047 18.5378 4.92262 19.5964 5.30691 20.4571C5.69119 21.3178 6.224 21.9665 6.90531 22.4031C7.58663 22.8397 8.3751 23.058 9.27071 23.058C9.7693 23.058 10.2318 22.9896 10.6582 22.8526C11.0846 22.7157 11.4671 22.5172 11.8058 22.2571C12.1445 21.997 12.4262 21.6796 12.651 21.3048C12.8759 20.9301 13.0318 20.5049 13.1188 20.0293H16.7377C16.6399 20.8397 16.3989 21.6155 16.0147 22.3566C15.6304 23.0977 15.1163 23.7604 14.4724 24.3448C13.8284 24.9292 13.0653 25.3902 12.1831 25.7279C11.3009 26.0655 10.309 26.2344 9.20742 26.2344ZM25.1147 26.2559C23.8006 26.2559 22.6636 25.9736 21.7037 25.409C20.7438 24.8444 20.0043 24.0553 19.4853 23.0418C18.9663 22.0283 18.7069 20.8497 18.7069 19.5059C18.7069 18.1514 18.9663 16.9665 19.4853 15.9512C20.0043 14.9359 20.7438 14.1459 21.7037 13.5813C22.6636 13.0167 23.8006 12.7344 25.1147 12.7344C26.4324 12.7344 27.57 13.0167 28.5275 13.5813C29.485 14.1459 30.2232 14.9359 30.7422 15.9512C31.2612 16.9665 31.5207 18.1514 31.5207 19.5059C31.5207 20.8497 31.2612 22.0283 30.7422 23.0418C30.2232 24.0553 29.485 24.8444 28.5275 25.409C27.57 25.9736 26.4324 26.2559 25.1147 26.2559ZM25.1147 23.4895C25.7402 23.4895 26.2631 23.3157 26.6837 22.9681C27.1042 22.6204 27.4196 22.145 27.6297 21.5417C27.8399 20.9384 27.9449 20.2556 27.9449 19.4933C27.9449 18.7231 27.8399 18.0378 27.6297 17.4373C27.4196 16.8367 27.1042 16.3638 26.6837 16.0186C26.2631 15.6734 25.7402 15.5008 25.1147 15.5008C24.4886 15.5008 23.9661 15.6734 23.547 16.0186C23.128 16.3638 22.8134 16.8358 22.6032 17.4346C22.3931 18.0333 22.288 18.7195 22.288 19.4933C22.288 20.2556 22.3931 20.9384 22.6032 21.5417C22.8134 22.145 23.128 22.6204 23.547 22.9681C23.9661 23.3157 24.4886 23.4895 25.1147 23.4895ZM38.7597 26.218C37.7582 26.218 36.8531 25.9586 36.0446 25.4397C35.2361 24.9209 34.5975 24.16 34.1287 23.157C33.66 22.1541 33.4256 20.9256 33.4256 19.4717C33.4256 17.9792 33.6672 16.7334 34.1504 15.7344C34.6336 14.7353 35.2784 13.9855 36.0848 13.4851C36.8912 12.9846 37.7762 12.7344 38.7398 12.7344C39.4817 12.7344 40.0994 12.8592 40.5931 13.1088C41.0868 13.3584 41.4853 13.6662 41.7885 14.0322C42.0918 14.3982 42.3201 14.7554 42.4734 15.1037H42.5868V8.53906H46.1012V26H42.6445V23.903H42.4734C42.3117 24.2549 42.0763 24.6083 41.7673 24.9631C41.4583 25.318 41.0593 25.6158 40.5701 25.8567C40.081 26.0975 39.4775 26.218 38.7597 26.218ZM39.8419 23.4009C40.4405 23.4009 40.9499 23.2363 41.3702 22.9069C41.7905 22.5775 42.1107 22.1177 42.3308 21.5274C42.5509 20.9371 42.6609 20.2483 42.6609 19.4609C42.6609 18.6652 42.5518 17.9756 42.3335 17.3921C42.1152 16.8087 41.7959 16.3561 41.3756 16.0342C40.9553 15.7123 40.4441 15.5514 39.8419 15.5514C39.2289 15.5514 38.7135 15.7177 38.2956 16.0504C37.8778 16.383 37.5627 16.8429 37.3504 17.4299C37.1382 18.0169 37.032 18.6939 37.032 19.4609C37.032 20.2273 37.1391 20.9076 37.3531 21.5018C37.5672 22.0961 37.8841 22.5611 38.3037 22.897C38.7234 23.233 39.2361 23.4009 39.8419 23.4009ZM49.0987 26V12.8984H52.613V26H49.0987ZM50.8549 11.1906C50.3257 11.1906 49.8723 11.0137 49.4946 10.6598C49.1169 10.306 48.9281 9.88143 48.9281 9.38608C48.9281 8.88061 49.1169 8.45303 49.4946 8.10334C49.8723 7.75365 50.3257 7.5788 50.8549 7.5788C51.3866 7.5788 51.8415 7.75342 52.2198 8.10266C52.598 8.4519 52.7872 8.8796 52.7872 9.38574C52.7872 9.88177 52.598 10.3066 52.2198 10.6602C51.8415 11.0138 51.3866 11.1906 50.8549 11.1906ZM59.117 18.4142V26H55.6026V12.8984H58.921L58.977 16.1691H58.7663C59.1099 15.0763 59.6319 14.2307 60.3322 13.6322C61.0325 13.0336 61.9357 12.7344 63.0418 12.7344C63.9499 12.7344 64.7413 12.9318 65.4159 13.3268C66.0905 13.7217 66.6144 14.2875 66.9876 15.0243C67.3608 15.7611 67.5474 16.642 67.5474 17.667V26H64.0331V18.2795C64.0331 17.4657 63.8232 16.8275 63.4035 16.3648C62.9837 15.9021 62.4033 15.6707 61.6622 15.6707C61.168 15.6707 60.7289 15.7789 60.3449 15.9954C59.961 16.2119 59.6603 16.5238 59.443 16.9313C59.2256 17.3387 59.117 17.833 59.117 18.4142ZM76.3652 31.1797C75.2741 31.1797 74.3234 31.0419 73.513 30.7662C72.7026 30.4906 72.043 30.1107 71.5342 29.6264C71.0253 29.142 70.6743 28.5878 70.481 27.9636L73.5019 27.1278C73.6135 27.3694 73.7837 27.6056 74.0125 27.8364C74.2413 28.0673 74.5467 28.2564 74.9287 28.4037C75.3106 28.551 75.7853 28.6247 76.3526 28.6247C77.2476 28.6247 77.9517 28.419 78.4651 28.0076C78.9784 27.5962 79.2351 26.9569 79.2351 26.0898V23.6799H78.96C78.8031 24.0312 78.5762 24.3703 78.2792 24.6971C77.9823 25.024 77.5934 25.2919 77.1127 25.5009C76.632 25.7099 76.0373 25.8144 75.3286 25.8144C74.345 25.8144 73.45 25.5832 72.6436 25.1209C71.8372 24.6585 71.1949 23.955 70.7169 23.0103C70.2388 22.0656 69.9998 20.8717 69.9998 19.4286C69.9998 17.9505 70.2434 16.7155 70.7305 15.7236C71.2176 14.7317 71.8653 13.9855 72.6735 13.4851C73.4817 12.9846 74.3697 12.7344 75.3375 12.7344C76.0757 12.7344 76.6937 12.8583 77.1912 13.1061C77.6888 13.3539 78.0923 13.6617 78.4016 14.0295C78.7109 14.3973 78.9461 14.7554 79.1071 15.1037H79.2494V12.8984H82.7115V25.8905C82.7115 27.0704 82.4396 28.0525 81.896 28.837C81.3523 29.6214 80.6034 30.208 79.6495 30.5967C78.6955 30.9853 77.6007 31.1797 76.3652 31.1797ZM76.4269 23.142C77.0297 23.142 77.5402 22.9941 77.9584 22.6983C78.3766 22.4025 78.6957 21.9751 78.9158 21.4159C79.1359 20.8568 79.2459 20.1872 79.2459 19.407C79.2459 18.6292 79.1368 17.9522 78.9185 17.376C78.7002 16.7997 78.382 16.3516 77.9638 16.0315C77.5456 15.7114 77.0333 15.5514 76.4269 15.5514C75.8139 15.5514 75.2976 15.7168 74.8779 16.0477C74.4583 16.3785 74.1414 16.833 73.9273 17.411C73.7133 17.989 73.6063 18.6544 73.6063 19.407C73.6063 20.1662 73.7142 20.8263 73.93 21.3872C74.1459 21.9482 74.4637 22.3809 74.8833 22.6853C75.303 22.9898 75.8175 23.142 76.4269 23.142ZM90.4659 26L96.4387 8.53906H101.118L107.242 26H103.266L100.468 17.5772C100.127 16.4893 99.7844 15.2981 99.4394 14.0036C99.0943 12.709 98.7301 11.2985 98.3468 9.77189H99.1231C98.7519 11.3056 98.4046 12.7234 98.0812 14.0251C97.7578 15.3269 97.4355 16.5109 97.1143 17.5772L94.4153 26H90.4659ZM94.1977 21.9477V19.1417H103.511V21.9477H94.1977ZM114.616 26.2559C113.302 26.2559 112.166 25.9736 111.208 25.409C110.251 24.8444 109.512 24.0553 108.993 23.0418C108.474 22.0283 108.215 20.8497 108.215 19.5059C108.215 18.1514 108.474 16.9665 108.993 15.9512C109.512 14.9359 110.251 14.1459 111.208 13.5813C112.166 13.0167 113.302 12.7344 114.616 12.7344C115.397 12.7344 116.115 12.8354 116.77 13.0374C117.425 13.2395 118.006 13.5285 118.513 13.9046C119.02 14.2807 119.438 14.7377 119.765 15.2755C120.093 15.8133 120.319 16.418 120.444 17.0896L117.176 17.7018C117.103 17.3616 116.994 17.0562 116.847 16.7855C116.7 16.5148 116.521 16.2833 116.309 16.091C116.097 15.8988 115.852 15.7523 115.575 15.6517C115.298 15.5511 114.991 15.5008 114.654 15.5008C114.028 15.5008 113.503 15.6692 113.08 16.0059C112.657 16.3427 112.337 16.8105 112.121 17.4092C111.904 18.008 111.796 18.7027 111.796 19.4933C111.796 20.2725 111.904 20.9627 112.121 21.5638C112.337 22.165 112.657 22.6362 113.08 22.9776C113.503 23.3189 114.028 23.4895 114.654 23.4895C114.995 23.4895 115.305 23.4373 115.586 23.3327C115.867 23.2282 116.116 23.077 116.333 22.879C116.551 22.681 116.733 22.4399 116.88 22.1557C117.027 21.8715 117.134 21.5536 117.203 21.2021L120.465 21.8079C120.344 22.4993 120.119 23.1179 119.789 23.6635C119.46 24.2091 119.042 24.6757 118.535 25.0632C118.029 25.4507 117.445 25.7464 116.784 25.9502C116.123 26.154 115.4 26.2559 114.616 26.2559ZM126.776 26.2541C125.944 26.2541 125.198 26.1073 124.539 25.8138C123.88 25.5203 123.362 25.0833 122.985 24.5028C122.607 23.9223 122.419 23.2003 122.419 22.3367C122.419 21.6036 122.552 20.9921 122.82 20.5023C123.087 20.0124 123.453 19.618 123.917 19.3189C124.382 19.0198 124.91 18.7923 125.501 18.6363C126.092 18.4803 126.711 18.3716 127.358 18.3104C128.114 18.2341 128.724 18.1623 129.189 18.095C129.654 18.0276 129.995 17.9223 130.212 17.7789C130.429 17.6356 130.538 17.4227 130.538 17.1404V17.0827C130.538 16.7088 130.459 16.3926 130.3 16.1339C130.141 15.8752 129.909 15.677 129.604 15.5393C129.299 15.4016 128.924 15.3327 128.479 15.3327C128.031 15.3327 127.64 15.4008 127.304 15.5371C126.968 15.6733 126.694 15.8552 126.48 16.0828C126.266 16.3104 126.111 16.566 126.017 16.8496L122.794 16.3145C123.016 15.5514 123.389 14.9041 123.913 14.3726C124.437 13.8411 125.088 13.4352 125.866 13.1549C126.644 12.8745 127.519 12.7344 128.49 12.7344C129.194 12.7344 129.877 12.8177 130.541 12.9843C131.205 13.151 131.801 13.4117 132.329 13.7663C132.857 14.121 133.276 14.5797 133.587 15.1424C133.897 15.705 134.052 16.3841 134.052 17.1798V26H130.719V24.1808H130.603C130.392 24.5867 130.11 24.9455 129.759 25.257C129.407 25.5686 128.985 25.8127 128.491 25.9892C127.997 26.1658 127.425 26.2541 126.776 26.2541ZM127.766 23.7896C128.319 23.7896 128.805 23.6794 129.224 23.4591C129.643 23.2388 129.971 22.9415 130.208 22.5671C130.445 22.1927 130.563 21.7758 130.563 21.3163V19.8985C130.456 19.9706 130.298 20.0381 130.089 20.1012C129.88 20.1642 129.647 20.2206 129.39 20.2705C129.133 20.3203 128.879 20.3636 128.629 20.4002C128.378 20.4369 128.155 20.469 127.961 20.4967C127.529 20.5549 127.149 20.6539 126.822 20.7936C126.494 20.9333 126.24 21.1201 126.058 21.354C125.877 21.5879 125.787 21.881 125.787 22.2333C125.787 22.5726 125.872 22.8576 126.043 23.0884C126.214 23.3193 126.448 23.4939 126.745 23.6121C127.041 23.7304 127.382 23.7896 127.766 23.7896ZM141.838 26.218C140.836 26.218 139.931 25.9586 139.123 25.4397C138.314 24.9209 137.676 24.16 137.207 23.157C136.738 22.1541 136.504 20.9256 136.504 19.4717C136.504 17.9792 136.745 16.7334 137.229 15.7344C137.712 14.7353 138.357 13.9855 139.163 13.4851C139.969 12.9846 140.854 12.7344 141.818 12.7344C142.56 12.7344 143.178 12.8592 143.671 13.1088C144.165 13.3584 144.563 13.6662 144.867 14.0322C145.17 14.3982 145.398 14.7554 145.552 15.1037H145.665V8.53906H149.179V26H145.723V23.903H145.552C145.39 24.2549 145.154 24.6083 144.845 24.9631C144.536 25.318 144.137 25.6158 143.648 25.8567C143.159 26.0975 142.556 26.218 141.838 26.218ZM142.92 23.4009C143.519 23.4009 144.028 23.2363 144.448 22.9069C144.869 22.5775 145.189 22.1177 145.409 21.5274C145.629 20.9371 145.739 20.2483 145.739 19.4609C145.739 18.6652 145.63 17.9756 145.412 17.3921C145.193 16.8087 144.874 16.3561 144.454 16.0342C144.033 15.7123 143.522 15.5514 142.92 15.5514C142.307 15.5514 141.792 15.7177 141.374 16.0504C140.956 16.383 140.641 16.8429 140.429 17.4299C140.216 18.0169 140.11 18.6939 140.11 19.4609C140.11 20.2273 140.217 20.9076 140.431 21.5018C140.645 22.0961 140.962 22.5611 141.382 22.897C141.802 23.233 142.314 23.4009 142.92 23.4009ZM158.102 26.2559C156.765 26.2559 155.612 25.9821 154.643 25.4343C153.675 24.8866 152.931 24.1088 152.412 23.101C151.892 22.0932 151.633 20.8984 151.633 19.5167C151.633 18.1687 151.891 16.9862 152.407 15.9691C152.923 14.952 153.653 14.1586 154.596 13.5889C155.54 13.0192 156.65 12.7344 157.926 12.7344C158.782 12.7344 159.581 12.8707 160.324 13.1434C161.068 13.416 161.72 13.8272 162.281 14.3769C162.843 14.9266 163.281 15.6173 163.596 16.449C163.912 17.2807 164.07 18.2577 164.07 19.3801V20.3666H153.075V18.155H162.357L160.714 18.7479C160.714 18.0658 160.61 17.473 160.402 16.9695C160.194 16.4661 159.885 16.0756 159.476 15.7979C159.067 15.5203 158.559 15.3815 157.951 15.3815C157.344 15.3815 156.828 15.5221 156.405 15.8033C155.982 16.0846 155.659 16.4661 155.439 16.948C155.218 17.4299 155.107 17.9777 155.107 18.5916V20.1486C155.107 20.9064 155.234 21.543 155.488 22.0585C155.741 22.574 156.098 22.9612 156.558 23.2203C157.018 23.4793 157.551 23.6088 158.158 23.6088C158.569 23.6088 158.941 23.5505 159.277 23.4337C159.612 23.3169 159.9 23.1439 160.142 22.9149C160.383 22.6858 160.567 22.4035 160.693 22.0679L163.871 22.6557C163.66 23.3794 163.293 24.0114 162.77 24.5514C162.248 25.0915 161.594 25.5106 160.807 25.8087C160.02 26.1069 159.119 26.2559 158.102 26.2559ZM166.474 26V12.8984H169.74L169.91 16.1572H169.657C169.853 15.3492 170.15 14.6917 170.548 14.1847C170.945 13.6777 171.41 13.3038 171.942 13.0631C172.474 12.8224 173.032 12.702 173.615 12.702C174.556 12.702 175.316 13.0013 175.895 13.5999C176.474 14.1985 176.901 15.122 177.174 16.3705H176.766C176.96 15.5286 177.279 14.8367 177.723 14.2947C178.166 13.7528 178.689 13.3518 179.292 13.0919C179.894 12.832 180.531 12.702 181.201 12.702C182.001 12.702 182.715 12.8766 183.344 13.2259C183.974 13.5751 184.47 14.0807 184.832 14.7426C185.195 15.4046 185.376 16.2117 185.376 17.1641V26H181.862V17.8365C181.862 17.0937 181.662 16.5414 181.261 16.1794C180.861 15.8175 180.368 15.6365 179.783 15.6365C179.341 15.6365 178.957 15.7332 178.632 15.9265C178.308 16.1199 178.059 16.3881 177.885 16.7313C177.712 17.0745 177.625 17.4771 177.625 17.9389V26H174.225V17.7395C174.225 17.0973 174.035 16.5863 173.656 16.2064C173.278 15.8264 172.787 15.6365 172.184 15.6365C171.773 15.6365 171.401 15.7314 171.068 15.9211C170.734 16.1109 170.471 16.3864 170.278 16.7475C170.085 17.1087 169.988 17.5525 169.988 18.0791V26H166.474ZM187.875 30.6385L188.68 27.9877L189.112 28.1032C189.588 28.2253 190.008 28.2588 190.372 28.2038C190.736 28.1488 191.029 28.0003 191.252 27.7582C191.474 27.5162 191.608 27.1776 191.655 26.7425L191.757 26.0387L186.836 12.8984H190.568L192.769 19.6997C193.04 20.5586 193.26 21.4171 193.427 22.2751C193.594 23.1332 193.785 24.03 193.999 24.9657H193.181C193.395 24.03 193.606 23.1302 193.816 22.2661C194.025 21.402 194.27 20.5466 194.55 19.6997L196.856 12.8984H200.546L194.982 27.5457C194.716 28.2494 194.375 28.8597 193.96 29.3764C193.545 29.8931 193.029 30.2916 192.412 30.5718C191.795 30.8521 191.048 30.9922 190.169 30.9922C189.705 30.9922 189.269 30.9585 188.861 30.8912C188.452 30.8238 188.124 30.7396 187.875 30.6385Z" fill="#0B1C30"/>
</svg>
